<?xml version="1.0" encoding="iso-8859-1"?>
<!-- Uploaded to: SVG Repo, www.svgrepo.com, Generator: SVG Repo Mixer Tools -->
<!DOCTYPE svg PUBLIC "-//W3C//DTD SVG 1.1//EN" "http://www.w3.org/Graphics/SVG/1.1/DTD/svg11.dtd">
<svg fill="#000000" height="800px" width="800px" version="1.1" id="Capa_1" xmlns="http://www.w3.org/2000/svg" xmlns:xlink="http://www.w3.org/1999/xlink" 
	 viewBox="0 0 469.064 469.064" xml:space="preserve">
<g id="XMLID_209_">
	<path id="XMLID_218_" d="M206.915,127.232c4.038,5.385,10.802,7.883,17.237,6.581l27.938-5.585v41.199
		c211.749,0,42.525,0,122.824,0l-22.315-67.131c-2.903-8.749-11.1-12.081-20.477-12.081h-61.93c0,0-35.17,6.113-42.132,7.507
		l-30.857-41.1c-5.737-7.638-16.601-9.208-24.238-3.447c-7.645,5.738-9.194,16.593-3.449,24.239L206.915,127.232z"/>
	<path id="XMLID_217_" d="M301.165,82.417c22.354,0,40.486-18.118,40.486-40.472c0-22.377-18.132-40.487-40.486-40.487
		c-22.361,0-40.495,18.11-40.495,40.487C260.67,64.3,278.804,82.417,301.165,82.417z"/>
	<path id="XMLID_216_" d="M224.756,222.408h11.645l7.982,79.489c24.108,4.627,42.403,25.816,42.403,51.256
		c0,9.301-2.643,17.918-6.933,25.495h67.652c-4.283-7.577-6.934-16.194-6.934-25.495c0-14.715,6.166-27.977,15.995-37.483
		l9.362-93.262h12.272v-37.292H224.756V222.408z"/>
	<path id="XMLID_215_" d="M352.339,353.153c0,22.355,18.131,40.472,40.493,40.472c22.354,0,40.487-18.116,40.487-40.472
		c0-22.376-18.133-40.486-40.487-40.486C370.471,312.667,352.339,330.777,352.339,353.153z"/>
	<path id="XMLID_214_" d="M187.411,299.306c2.413-9.253-3.133-18.707-12.388-21.121c-9.224-2.435-18.708,3.126-21.121,12.388
		l-17.151,65.844l-33.961,45.005H45.267c-8.672,0-16.173,2.436-19.787,10.358L0,467.605c39.269,0-12.181,0,125.314,0v-38.55
		l43.214-57.264L187.411,299.306z"/>
	<path id="XMLID_213_" d="M76.239,393.625c22.353,0,40.487-18.116,40.487-40.472c0-22.376-18.134-40.486-40.487-40.486
		c-22.362,0-40.494,18.11-40.494,40.486C35.745,375.509,53.876,393.625,76.239,393.625z"/>
	<path id="XMLID_212_" d="M443.585,411.782c-3.592-7.876-11.031-10.358-19.795-10.358c-163.962,0,101.458,0-61.93,0
		c-8.695,0-16.179,2.452-19.787,10.358l-21.926,48.04l3.548,7.783c154.623,0-9.063,0,145.369,0L443.585,411.782z"/>
	<path id="XMLID_211_" d="M265.489,401.424c-163.962,0,101.458,0-61.929,0c-8.695,0-16.18,2.452-19.788,10.358l-25.479,55.823
		c225.722,0-72.018,0,152.471,0l-25.481-55.823C281.69,403.906,274.252,401.424,265.489,401.424z"/>
	<path id="XMLID_210_" d="M234.532,312.667c-22.362,0-40.495,18.11-40.495,40.486c0,22.355,18.133,40.472,40.495,40.472
		c22.353,0,40.487-18.116,40.487-40.472C275.02,330.777,256.886,312.667,234.532,312.667z"/>
</g>
</svg>